<svg id="sequence-003" xmlns="http://www.w3.org/2000/svg" viewBox="0 0 3814 5000">
	<defs>
		<clipPath id="clip-light">
			<path d="M2010.49,577.2H1808.94c-577.44,0-1045.55,468.1-1045.55,1045.54V3316.85c0,577.44,468.11,1045.54,1045.55,1045.54h201.55c577.43,0,1045.54-468.1,1045.54-1045.54V1622.74C3056,1045.3,2587.92,577.2,2010.49,577.2Zm806,2734.47c0,451.67-366.16,817.83-817.84,817.83h-182.4c-451.68,0-817.84-366.16-817.84-817.83V1634.36c0-451.68,366.16-817.84,817.84-817.84h182.4c451.68,0,817.84,366.16,817.84,817.84Z"/>
		</clipPath>
		<filter id="filter" x="-20%" y="-20%" width="140%" height="140%" filterUnits="objectBoundingBox" primitiveUnits="userSpaceOnUse" color-interpolation-filters="linearRGB">
			<feGaussianBlur stdDeviation="100 100" x="0%" y="0%" width="100%" height="100%" in="SourceGraphic" edgeMode="none" result="blur"/>
		</filter>
	</defs>
	<path fill="#fff" d="M2010.49,577.2H1808.94c-577.44,0-1045.55,468.1-1045.55,1045.54V3316.85c0,577.44,468.11,1045.54,1045.55,1045.54h201.55c577.43,0,1045.54-468.1,1045.54-1045.54V1622.74C3056,1045.3,2587.92,577.2,2010.49,577.2Zm806,2734.47c0,451.67-366.16,817.83-817.84,817.83h-182.4c-451.68,0-817.84-366.16-817.84-817.83V1634.36c0-451.68,366.16-817.84,817.84-817.84h182.4c451.68,0,817.84,366.16,817.84,817.84Z"/>
	<g clip-path="url(#clip-light)">
		<rect id="light-red" filter="url(#filter)" x="880.97" y="681.52" width="2052" height="3572" rx="879.72" fill="none" stroke-dasharray="1500 8237.13" stroke-linecap="round" stroke-linejoin="round" stroke-width="500" stroke="#d10000"/>
		<rect id="light-pink" filter="url(#filter)" x="880.97" y="681.52" width="2052" height="3572" rx="879.72" fill="none" stroke-dasharray="1500 8237.13" stroke-linecap="round" stroke-linejoin="round" stroke-width="500" stroke="#e252ff"/>
		<rect id="light-cyan" filter="url(#filter)" x="880.97" y="681.52" width="2052" height="3572" rx="879.72" fill="none" stroke-dasharray="1500 8237.13" stroke-linecap="round" stroke-linejoin="round" stroke-width="500" stroke="#78fee7"/>
		<rect id="light-yellow" filter="url(#filter)" x="880.97" y="681.52" width="2052" height="3572" rx="879.72" fill="none" stroke-dasharray="1500 8237.13" stroke-linecap="round" stroke-linejoin="round" stroke-width="500" stroke="#ffda21"/>
		<rect id="light-blue" filter="url(#filter)" x="880.97" y="681.52" width="2052" height="3572" rx="879.72" fill="none" stroke-dasharray="1500 8237.13" stroke-linecap="round" stroke-linejoin="round" stroke-width="500" stroke="#1133cc"/>
		<rect id="light-green" filter="url(#filter)" x="880.97" y="681.52" width="2052" height="3572" rx="879.72" fill="none" stroke-dasharray="1500 8237.13" stroke-linecap="round" stroke-linejoin="round" stroke-width="500" stroke="#33dd00"/>
		<rect id="light-red2" filter="url(#filter)" x="880.97" y="681.52" width="2052" height="3572" rx="879.72" fill="none" stroke-dasharray="500 9237.13" stroke-linecap="round" stroke-linejoin="round" stroke-width="500" stroke="#d10000"/>
	</g>
	<style>
		#sequence-003 #light-green {
			animation: moveLight 8.4s linear 0s infinite;
		}
		#sequence-003 #light-blue {
			animation: moveLight 8.4s linear -1.4s infinite;
		}
		#sequence-003 #light-yellow {
			animation: moveLight 8.4s linear -2.8s infinite;
		}
		#sequence-003 #light-cyan {
			animation: moveLight 8.4s linear -4.2s infinite;
		}
		#sequence-003 #light-pink {
			animation: moveLight 8.4s linear -5.6s infinite;
		}
		#sequence-003 #light-red {
			animation: moveLight 8.4s linear -7s infinite;
		}
		#sequence-003 #light-red2 {
			animation: moveLight 8.4s linear -7.9s infinite;
		}

		@keyframes moveLight {
			to {
				stroke-dashoffset: -9737.13px;
			}
		}
	</style>
</svg>
