<svg xmlns="http://www.w3.org/2000/svg" xmlns:xlink="http://www.w3.org/1999/xlink" width="500" zoomAndPan="magnify" viewBox="0 0 375 225" height="300" preserveAspectRatio="xMidYMid meet" version="1.0"><defs><g/></defs><g fill="#f4f3f0" fill-opacity="1"><g transform="translate(12.667299, 118.417117)"><g><path d="M 60.546875 -46.546875 L 92.46875 0 L 65.375 0 L 46.171875 -28.359375 L 26.96875 0 L 0.640625 0 L 32.4375 -45.53125 L 2.671875 -89.03125 L 29 -89.03125 L 46.171875 -63.078125 L 63.34375 -89.03125 L 89.921875 -89.03125 Z M 60.546875 -46.546875 "/></g></g></g><g fill="#f4f3f0" fill-opacity="1"><g transform="translate(106.022123, 118.417117)"><g><path d="M 8.90625 -89.03125 L 47.6875 -89.03125 C 59.050781 -89.03125 67.867188 -86.335938 74.140625 -80.953125 C 80.421875 -75.566406 83.5625 -67.914062 83.5625 -58 C 83.5625 -47.570312 80.421875 -39.472656 74.140625 -33.703125 C 67.867188 -27.941406 59.050781 -25.0625 47.6875 -25.0625 L 31.546875 -25.0625 L 31.546875 0 L 8.90625 0 Z M 31.546875 -71.21875 L 31.546875 -42.859375 L 46.546875 -42.859375 C 51.546875 -42.859375 55.398438 -44.085938 58.109375 -46.546875 C 60.828125 -49.003906 62.1875 -52.566406 62.1875 -57.234375 C 62.1875 -61.816406 60.828125 -65.289062 58.109375 -67.65625 C 55.398438 -70.03125 51.546875 -71.21875 46.546875 -71.21875 Z M 31.546875 -71.21875 "/></g></g></g><g fill="#f4f3f0" fill-opacity="1"><g transform="translate(192.508896, 118.417117)"><g><path d="M 62.578125 0 L 49.34375 -25.0625 L 31.546875 -25.0625 L 31.546875 0 L 8.90625 0 L 8.90625 -89.03125 L 48.71875 -89.03125 C 60.5 -89.03125 69.609375 -86.335938 76.046875 -80.953125 C 82.492188 -75.566406 85.71875 -67.914062 85.71875 -58 C 85.71875 -44.257812 80.335938 -34.71875 69.578125 -29.375 L 88.265625 0 Z M 31.546875 -42.859375 L 48.71875 -42.859375 C 53.632812 -42.859375 57.445312 -44.085938 60.15625 -46.546875 C 62.875 -49.003906 64.234375 -52.566406 64.234375 -57.234375 C 64.234375 -61.816406 62.875 -65.289062 60.15625 -67.65625 C 57.445312 -70.03125 53.632812 -71.21875 48.71875 -71.21875 L 31.546875 -71.21875 Z M 31.546875 -42.859375 "/></g></g></g><g fill="#f4f3f0" fill-opacity="1"><g transform="translate(284.591843, 118.417117)"><g><path d="M 76.953125 -70.84375 L 50.109375 -70.84375 L 50.109375 0 L 27.46875 0 L 27.46875 -70.84375 L 0.890625 -70.84375 L 0.890625 -89.15625 L 76.953125 -89.15625 Z M 76.953125 -70.84375 "/></g></g></g><g fill="#a6a6a6" fill-opacity="1"><g transform="translate(14.600476, 193.390468)"><g><path d="M 32.46875 -32.578125 L 11.515625 -32.578125 L 11.515625 -22.21875 L 30.28125 -22.21875 L 30.28125 -16.390625 L 11.515625 -16.390625 L 11.515625 -5.8125 L 33.125 -5.8125 L 33.125 0 L 5.046875 0 L 5.046875 -38.390625 L 32.46875 -38.390625 Z M 32.46875 -32.578125 "/></g></g></g><g fill="#a6a6a6" fill-opacity="1"><g transform="translate(75.911693, 193.390468)"><g><path d="M 22.15625 0 L 15.46875 0 L 0.171875 -38.390625 L 7.125 -38.390625 L 18.96875 -7.1875 L 30.9375 -38.390625 L 37.671875 -38.390625 Z M 22.15625 0 "/></g></g></g><g fill="#a6a6a6" fill-opacity="1"><g transform="translate(139.087315, 193.390468)"><g><path d="M 32.46875 -32.578125 L 11.515625 -32.578125 L 11.515625 -22.21875 L 30.28125 -22.21875 L 30.28125 -16.390625 L 11.515625 -16.390625 L 11.515625 -5.8125 L 33.125 -5.8125 L 33.125 0 L 5.046875 0 L 5.046875 -38.390625 L 32.46875 -38.390625 Z M 32.46875 -32.578125 "/></g></g></g><g fill="#a6a6a6" fill-opacity="1"><g transform="translate(200.39854, 193.390468)"><g><path d="M 38.328125 0 L 31.96875 0 L 11.515625 -27.53125 L 11.515625 0 L 5.046875 0 L 5.046875 -38.390625 L 11.40625 -38.390625 L 31.96875 -10.796875 L 31.96875 -38.390625 L 38.328125 -38.390625 Z M 38.328125 0 "/></g></g></g><g fill="#a6a6a6" fill-opacity="1"><g transform="translate(269.167338, 193.390468)"><g><path d="M 31.265625 -32.578125 L 19.078125 -32.578125 L 19.078125 0 L 12.609375 0 L 12.609375 -32.578125 L 0.5 -32.578125 L 0.5 -38.390625 L 31.265625 -38.390625 Z M 31.265625 -32.578125 "/></g></g></g><g fill="#a6a6a6" fill-opacity="1"><g transform="translate(326.256234, 193.390468)"><g><path d="M 17.65625 -38.671875 C 22.632812 -38.671875 27.113281 -37.351562 31.09375 -34.71875 L 28.40625 -29.015625 C 24.5 -31.390625 20.753906 -32.578125 17.171875 -32.578125 C 15.234375 -32.578125 13.703125 -32.226562 12.578125 -31.53125 C 11.460938 -30.84375 10.90625 -29.859375 10.90625 -28.578125 C 10.90625 -27.296875 11.414062 -26.207031 12.4375 -25.3125 C 13.46875 -24.414062 14.75 -23.753906 16.28125 -23.328125 C 17.820312 -22.910156 19.488281 -22.378906 21.28125 -21.734375 C 23.070312 -21.097656 24.734375 -20.421875 26.265625 -19.703125 C 27.804688 -18.992188 29.078125 -17.878906 30.078125 -16.359375 C 31.085938 -14.847656 31.59375 -13.015625 31.59375 -10.859375 C 31.59375 -7.492188 30.25 -4.804688 27.5625 -2.796875 C 24.875 -0.785156 21.390625 0.21875 17.109375 0.21875 C 14.179688 0.21875 11.347656 -0.328125 8.609375 -1.421875 C 5.867188 -2.523438 3.472656 -4.007812 1.421875 -5.875 L 4.21875 -11.46875 C 6.15625 -9.675781 8.285156 -8.296875 10.609375 -7.328125 C 12.929688 -6.359375 15.132812 -5.875 17.21875 -5.875 C 19.488281 -5.875 21.253906 -6.285156 22.515625 -7.109375 C 23.773438 -7.929688 24.40625 -9.070312 24.40625 -10.53125 C 24.40625 -11.84375 23.890625 -12.945312 22.859375 -13.84375 C 21.835938 -14.738281 20.5625 -15.394531 19.03125 -15.8125 C 17.5 -16.238281 15.835938 -16.753906 14.046875 -17.359375 C 12.253906 -17.960938 10.585938 -18.601562 9.046875 -19.28125 C 7.515625 -19.957031 6.234375 -21.046875 5.203125 -22.546875 C 4.179688 -24.046875 3.671875 -25.851562 3.671875 -27.96875 C 3.671875 -31.21875 4.953125 -33.8125 7.515625 -35.75 C 10.078125 -37.695312 13.457031 -38.671875 17.65625 -38.671875 Z M 17.65625 -38.671875 "/></g></g></g></svg>